<svg xmlns="http://www.w3.org/2000/svg" viewBox="0 0 128 128">
  <!-- Dark background -->
  <circle cx="64" cy="64" r="64" fill="#0a1628"/>
  
  <!-- Inner circle -->
  <circle cx="64" cy="64" r="52" fill="#162040" stroke="#00e676" stroke-width="1.5" opacity="0.8"/>
  
  <!-- Radar rings -->
  <circle cx="64" cy="64" r="40" fill="none" stroke="#00e676" stroke-width="0.5" opacity="0.2"/>
  <circle cx="64" cy="64" r="28" fill="none" stroke="#00e676" stroke-width="0.5" opacity="0.15"/>
  
  <!-- Eagle eye — outer ring -->
  <circle cx="64" cy="64" r="24" fill="none" stroke="#ff2d2d" stroke-width="2.5" opacity="0.85"/>
  
  <!-- Eagle eye — iris -->
  <circle cx="64" cy="64" r="13" fill="#ff2d2d" opacity="0.85"/>
  
  <!-- Eagle eye — pupil -->
  <circle cx="64" cy="64" r="6" fill="#0a1628"/>
  <circle cx="64" cy="64" r="2.5" fill="#ff2d2d"/>
  
  <!-- Crosshair lines -->
  <line x1="64" y1="16" x2="64" y2="36" stroke="#00e676" stroke-width="1.5" opacity="0.5"/>
  <line x1="64" y1="92" x2="64" y2="112" stroke="#00e676" stroke-width="1.5" opacity="0.5"/>
  <line x1="16" y1="64" x2="36" y2="64" stroke="#00e676" stroke-width="1.5" opacity="0.5"/>
  <line x1="92" y1="64" x2="112" y2="64" stroke="#00e676" stroke-width="1.5" opacity="0.5"/>
  
  <!-- Corner brackets -->
  <path d="M22,38 L22,22 L38,22" fill="none" stroke="#3b9eff" stroke-width="2" opacity="0.4"/>
  <path d="M90,22 L106,22 L106,38" fill="none" stroke="#3b9eff" stroke-width="2" opacity="0.4"/>
  <path d="M106,90 L106,106 L90,106" fill="none" stroke="#3b9eff" stroke-width="2" opacity="0.4"/>
  <path d="M38,106 L22,106 L22,90" fill="none" stroke="#3b9eff" stroke-width="2" opacity="0.4"/>
  
  <!-- Subtle "E" watermark -->
  <text x="64" y="72" text-anchor="middle" font-family="Arial,Helvetica,sans-serif" 
        font-size="18" font-weight="bold" fill="#ffffff" opacity="0.08">E</text>
</svg>